<svg id="visual" viewBox="0 0 900 600" width="900" height="600" xmlns="http://www.w3.org/2000/svg" xmlns:xlink="http://www.w3.org/1999/xlink" version="1.1"><g stroke-width="1" stroke-linejoin="bevel"><path d="M373 217L451 0L290 151Z" fill="#deb441" stroke="#deb441"></path><path d="M373 217L602 169L451 0Z" fill="#c27025" stroke="#c27025"></path><path d="M602 169L615 0L451 0Z" fill="#d29130" stroke="#d29130"></path><path d="M451 0L177 0L290 151Z" fill="#b96022" stroke="#b96022"></path><path d="M373 217L610 398L602 169Z" fill="#c27025" stroke="#c27025"></path><path d="M602 169L900 176L615 0Z" fill="#992e1c" stroke="#992e1c"></path><path d="M177 431L490 459L373 217Z" fill="#deb441" stroke="#deb441"></path><path d="M373 217L490 459L610 398Z" fill="#8d1b1b" stroke="#8d1b1b"></path><path d="M177 431L373 217L290 151Z" fill="#d8a238" stroke="#d8a238"></path><path d="M0 188L177 431L290 151Z" fill="#b96022" stroke="#b96022"></path><path d="M177 0L0 188L290 151Z" fill="#8d1b1b" stroke="#8d1b1b"></path><path d="M177 0L0 0L0 188Z" fill="#992e1c" stroke="#992e1c"></path><path d="M177 431L419 600L490 459Z" fill="#d8a238" stroke="#d8a238"></path><path d="M490 459L628 600L610 398Z" fill="#8d1b1b" stroke="#8d1b1b"></path><path d="M900 390L900 176L610 398Z" fill="#992e1c" stroke="#992e1c"></path><path d="M610 398L900 176L602 169Z" fill="#c27025" stroke="#c27025"></path><path d="M900 176L900 0L615 0Z" fill="#8d1b1b" stroke="#8d1b1b"></path><path d="M0 600L233 600L177 431Z" fill="#c27025" stroke="#c27025"></path><path d="M177 431L233 600L419 600Z" fill="#e3c54c" stroke="#e3c54c"></path><path d="M0 188L0 473L177 431Z" fill="#d29130" stroke="#d29130"></path><path d="M419 600L628 600L490 459Z" fill="#ca812a" stroke="#ca812a"></path><path d="M628 600L900 390L610 398Z" fill="#af4f1f" stroke="#af4f1f"></path><path d="M0 473L0 600L177 431Z" fill="#e3c54c" stroke="#e3c54c"></path><path d="M628 600L900 600L900 390Z" fill="#d29130" stroke="#d29130"></path></g></svg>